<svg width="86" height="69" viewBox="0 0 86 69" xmlns="http://www.w3.org/2000/svg"><title>B08D8029-D57D-429E-924C-E32C4AA943CE</title><g fill="none" fill-rule="evenodd"><path d="M38.377 59.94a7.189 7.189 0 1 0-14.378.001 7.189 7.189 0 0 0 14.378-.001z" stroke="#125BBB" stroke-width="2" stroke-linecap="round" stroke-linejoin="round"/><path d="M31.189 62.815a2.876 2.876 0 0 1 0-5.75 2.876 2.876 0 0 1 0 5.75M68.565 62.815a2.876 2.876 0 0 1 0-5.75 2.876 2.876 0 0 1 0 5.75" fill="#125BBB" fill-rule="nonzero"/><path d="M75.753 59.94a7.189 7.189 0 1 0-14.377.001 7.189 7.189 0 0 0 14.377-.001zM61.377 32.626v6.8a3.263 3.263 0 0 0 3.264 3.263h12.55M61.377 48.44h2.876M25.64 25.438h19.924M22.563 34.064H42.69M29.751 15.376C29.751 7.436 23.315 1 15.376 1 7.436 1 1 7.436 1 15.376c0 7.94 6.436 14.375 14.376 14.375 7.94 0 14.375-6.436 14.375-14.375z" stroke="#125BBB" stroke-width="2" stroke-linecap="round" stroke-linejoin="round"/><path stroke="#125BBB" stroke-width="2" stroke-linecap="round" stroke-linejoin="round" d="M8.188 16.813l5.75 5.75 8.625-12.938M83.475 45.203l-6.284-2.515-3.77-15.072a2.874 2.874 0 0 0-2.788-2.178H55.628v-5.75c0-.794-.644-1.438-1.438-1.438H29.463c-1.333 6.562-7.133 11.5-14.087 11.5v28.752c0 .795.643 1.437 1.438 1.437h7.188a7.188 7.188 0 1 1 14.375 0h23.001a7.188 7.188 0 1 1 14.376 0h7.187c.794 0 1.438-.642 1.438-1.437V46.537c0-.587-.358-1.116-.904-1.334z"/><path d="M54.19 18.25H29.462c-1.332 6.562-7.132 11.501-14.086 11.501v11.5h25.88c7.937 0 14.371-6.434 14.371-14.37v-7.193c0-.793-.644-1.437-1.437-1.437z" stroke="#125BBB" stroke-width="2" stroke-linecap="round" stroke-linejoin="round"/></g></svg>