<svg width="72" height="71" viewBox="0 0 72 71" xmlns="http://www.w3.org/2000/svg"><title>5304849B-66AC-4325-B783-3B469EBC323B</title><g stroke="#125BBB" stroke-width="2" fill="none" fill-rule="evenodd"><path d="M15.816 35.407h-1.78a2.669 2.669 0 0 1-2.67-2.67V23.84a2.669 2.669 0 0 1 2.67-2.67h1.78a2.669 2.669 0 0 1 2.67 2.67v8.898a2.669 2.669 0 0 1-2.67 2.67zM41.028 63.881h-9.492l4.746-10.678z"/><path d="M30.35 69.814l1.186-5.933h9.492l1.186 5.922z"/><path d="M23.554 46.261l-.324-.177-1.186 4.746 9.492 13.051 4.745-10.678c-4.99 0-9.495-2.81-12.727-6.942zM49.01 46.261c-3.233 4.133-7.738 6.942-12.728 6.942l4.746 10.678 9.492-13.05-1.187-4.747-.324.177z"/><path d="M67.797 59.948c-6.54-3.441-12.746-6.061-18.464-6.744h-.54L41.028 63.88l1.186 5.922h-.445l.001.01H70.69v-5.071a5.42 5.42 0 0 0-2.892-4.794zM23.77 53.203h-.54c-5.717.684-11.923 3.303-18.464 6.745a5.423 5.423 0 0 0-2.892 4.794v5.072H30.35l1.186-5.933-7.765-10.678zM30.35 69.814h.444zM56.748 35.407h1.78a2.669 2.669 0 0 0 2.669-2.67V23.84a2.669 2.669 0 0 0-2.67-2.67h-1.78a2.669 2.669 0 0 0-2.669 2.67v8.898a2.669 2.669 0 0 0 2.67 2.67z"/><path d="M57.638 21.17C57.638 5.596 46.66 1 36.282 1 25.904 1 14.926 5.597 14.926 21.17"/><path d="M18.485 23.542c0-9.828 7.968-17.796 17.797-17.796 9.828 0 17.796 7.968 17.796 17.796v8.305c0 10.484-7.968 21.356-17.796 21.356-9.829 0-17.797-10.872-17.797-21.356v-8.305zM57.638 35.407c0 5.246-3.17 9.491-20.17 9.491"/></g></svg>