<svg width="73" height="69" viewBox="0 0 73 69" xmlns="http://www.w3.org/2000/svg"><title>DD754777-ADB4-4DAD-9F05-0AF3EAC54810</title><g stroke="#125BBB" stroke-width="2" fill="none" fill-rule="evenodd"><path d="M49.964 63.87H23.913c-.271 0-.377-.372-.15-.529l2.181-1.54c2.355-1.66 3.467-4.703 2.78-7.604h16.429l-.001.003c-.686 2.9.428 5.944 2.783 7.604l2.18 1.537c.226.158.12.528-.151.528z"/><path d="M67.77 54.197H6.106a4.23 4.23 0 0 1-4.23-4.23V5.23A4.23 4.23 0 0 1 6.106 1H67.77A4.229 4.229 0 0 1 72 5.23v44.738a4.229 4.229 0 0 1-4.23 4.23z"/><path d="M72 43.316H1.877V5.229A4.229 4.229 0 0 1 6.106 1H67.77A4.229 4.229 0 0 1 72 5.23v38.086zM50.842 67.496H23.034a1.819 1.819 0 0 1-1.813-1.813c0-.998.816-1.814 1.813-1.814h27.808c.998 0 1.814.816 1.814 1.814 0 .997-.816 1.813-1.814 1.813z"/><path stroke-linejoin="round" d="M28.475 34.853H11.55L6.713 20.344H33.31zM12.758 20.344l3.627-8.463M27.266 20.344l-3.627-8.463M38.147 11.881h12.09M55.074 11.881h4.836M64.746 11.881h2.418M38.147 27.599h12.09M55.074 27.599h4.836M64.746 27.599h2.418M67.164 34.853H58.7M53.865 34.853H46.61M41.774 34.853h-3.627M67.164 20.344H58.7M53.865 20.344H46.61M41.774 20.344h-3.627"/></g></svg>