<svg width="58" height="39" viewBox="0 0 58 39" xmlns="http://www.w3.org/2000/svg"><title>715950E5-465D-4EE7-9117-7D2FB24D543A</title><path d="M21.19 21.254v2.945a.847.847 0 0 1-.832.832.847.847 0 0 1-.833-.832v-2.945c0-.448.384-.832.833-.832.448 0 .832.384.832.832zM58 .832a.847.847 0 0 1-.832.832h-3.201v6.722c0 2.369-1.729 4.354-4.033 4.738v24.454a.847.847 0 0 1-.832.833H8.898a.847.847 0 0 1-.832-.833V13.124c-2.304-.384-4.033-2.369-4.033-4.738V1.664h-3.2A.847.847 0 0 1 0 .832C0 .384.384 0 .832 0H57.168c.448.064.832.384.832.832zM37.834 8.386c0 1.793 1.473 3.201 3.201 3.201 1.793 0 3.201-1.472 3.201-3.2V1.663h-6.402v6.722zm-8.002 0c0 1.793 1.473 3.201 3.201 3.201 1.793 0 3.201-1.472 3.201-3.2V1.663h-6.402v6.722zm-16.132 0c0 1.793 1.472 3.201 3.2 3.201 1.793 0 3.202-1.472 3.202-3.2V1.663H13.7v6.722zm-4.802 3.201c1.793 0 3.201-1.472 3.201-3.2V1.663H5.634v6.722c0 1.729 1.472 3.201 3.264 3.201zm13.764 1.024a4.6 4.6 0 0 1-1.728-1.6 4.884 4.884 0 0 1-4.033 2.177c-1.665 0-3.137-.833-4.033-2.177-.705 1.088-1.857 1.857-3.201 2.113V36.81h12.995V12.611zm2.305-1.024c1.792 0 3.2-1.472 3.2-3.2V1.663h-6.401v6.722c0 1.729 1.408 3.201 3.2 3.201zm23.238 1.537a4.9 4.9 0 0 1-3.137-2.113 4.884 4.884 0 0 1-4.033 2.177c-1.664 0-3.137-.833-4.033-2.177a4.884 4.884 0 0 1-4.033 2.177c-1.664 0-3.137-.833-4.033-2.177-.896 1.28-2.369 2.177-4.033 2.177-.256 0-.448 0-.704-.064v23.622h24.006V13.124zm4.161-11.46h-6.465v6.722c0 1.793 1.472 3.201 3.2 3.201 1.793 0 3.201-1.472 3.201-3.2V1.663h.064zM36.682 34.762c0 .448.384.832.832.832h8.899a.847.847 0 0 0 .832-.832c0-.449-.448-.833-.896-.833H37.45c-.448 0-.768.384-.768.833zm-5.057-.833c-.512 0-.833.384-.833.833 0 .448.385.832.833.832a.847.847 0 0 0 .832-.832c0-.449-.448-.833-.832-.833zm3.265 0h-.705a.847.847 0 0 0-.832.833c0 .448.384.832.832.832h.705a.847.847 0 0 0 .832-.832.847.847 0 0 0-.832-.833z" fill-rule="nonzero" fill="#FFCC86"/></svg>