<svg width="52" height="50" viewBox="0 0 52 50" xmlns="http://www.w3.org/2000/svg"><title>BA01C337-6D72-4D8D-97B5-708B10B8ACBA</title><path d="M30.036 27.534c.058.402-.172.747-.574.862l-11.78 2.528h-.172a.682.682 0 0 1-.69-.575c-.057-.402.173-.747.575-.862l11.78-2.528c.402-.057.746.173.861.575zm-13.79 2.988c-.057-.402-.46-.632-.862-.575l-.517.115c-.402.058-.632.46-.574.862a.682.682 0 0 0 .69.574h.172l.517-.114c.402-.115.632-.46.574-.862zm-3.39 0c-.402.115-.632.46-.574.862.057.344.402.574.747.574h.172c.402-.057.632-.46.575-.862-.173-.402-.518-.69-.92-.574zM50.664 5.527c-1.264 2.069-3.333 4.425-5.746 6.608a91.904 91.904 0 0 1-2.873 2.413l.287.288c.115.115.173.287.23.46l.977 10.342c0 .23-.058.402-.23.574L19.751 49.77c-.115.115-.345.23-.517.23a.702.702 0 0 1-.517-.23L.215 31.27a.728.728 0 0 1 0-1.035L23.773 6.677a.738.738 0 0 1 .575-.23l10.342.977c.173 0 .345.114.46.23l5.86 5.86a54.156 54.156 0 0 0 2.931-2.413c2.298-2.126 4.252-4.367 5.459-6.32 1.321-2.126 1.264-3.103 1.034-3.333-.747-.517-5.631 2.24-11.664 7.7-.287.287-.747.23-1.034-.058-.288-.287-.23-.747.057-1.034C39.69 6.332 49.17-2.057 51.468.47c.92.977.632 2.758-.804 5.056zm-9.538 10.17l-.288-.287c-1.034.747-2.068 1.322-3.045 1.839-.23.115-.46.23-.69.287-.057.977-.517 1.896-1.206 2.643a4.262 4.262 0 0 1-3.045 1.264 4.262 4.262 0 0 1-3.046-1.264 4.305 4.305 0 0 1-1.264-3.045c0-1.15.46-2.24 1.264-3.045a4.266 4.266 0 0 1 6.033 0c.518.517.92 1.206 1.092 1.896.058-.058.115-.058.23-.115.862-.402 1.724-.92 2.643-1.551l-5.516-5.516-9.71-.92L1.767 30.752l17.467 17.467 22.811-22.811-.92-9.71zm-7.47.173c-.057.345-.057.632.115.747.172.172.69.287 1.839-.058-.115-.517-.345-1.034-.747-1.436-.575-.575-1.264-.804-2.011-.804-.747 0-1.437.287-2.011.804-.517.517-.805 1.264-.805 2.011 0 .747.288 1.494.805 2.011 1.091 1.092 2.93 1.092 4.022 0 .344-.345.517-.69.69-1.092a4.292 4.292 0 0 1-1.15.173c-.69 0-1.264-.23-1.666-.632-.402-.46-.575-1.15-.46-1.954.058-.402.46-.632.804-.575.403.058.633.403.575.805zM19.12 23.34c-.172-.862 0-1.724.46-2.471.46-.747 1.206-1.207 2.068-1.437a3.195 3.195 0 0 1 3.85 2.528c.172.862 0 1.724-.46 2.471-.46.747-1.206 1.207-2.068 1.437-.23.057-.46.057-.69.057-1.494 0-2.873-1.034-3.16-2.586zm1.38-.288c.229.977 1.206 1.609 2.183 1.38.46-.116.861-.403 1.149-.805.287-.402.344-.92.23-1.38-.173-.861-.92-1.436-1.782-1.436-.115 0-.23 0-.402.058-.46.115-.862.402-1.149.804-.23.402-.345.92-.23 1.38zm1.493 12.526c.172.862 0 1.724-.46 2.47a3.146 3.146 0 0 1-2.068 1.437c-.23.058-.46.058-.69.058-.632 0-1.206-.173-1.78-.517a3.146 3.146 0 0 1-1.437-2.069c-.173-.862 0-1.724.46-2.47a3.146 3.146 0 0 1 2.068-1.437c1.781-.345 3.562.747 3.907 2.528zm-1.379.287c-.172-.862-.92-1.436-1.781-1.436-.115 0-.23 0-.402.057-.46.115-.862.403-1.15.805-.287.402-.344.92-.23 1.379.116.46.403.862.805 1.149.402.287.92.345 1.38.23.459-.115.861-.402 1.148-.805.23-.402.288-.919.23-1.379z" fill-rule="nonzero" fill="#FFCC86"/></svg>