<svg width="45" height="49" viewBox="0 0 45 49" xmlns="http://www.w3.org/2000/svg"><title>3F0DF274-FAAA-487F-94EA-5485708AC860</title><g stroke-width="1.5" stroke="#FFCC86" fill="none" fill-rule="evenodd"><path d="M10.804 7.308a1.961 1.961 0 0 1-3.922 0V3.059a1.961 1.961 0 0 1 3.922 0v4.249zM24.53 7.308a1.961 1.961 0 0 1-3.922 0V3.059a1.961 1.961 0 0 1 3.922 0v4.249zM38.255 7.308a1.961 1.961 0 0 1-3.922 0V3.059a1.961 1.961 0 0 1 3.922 0v4.249z"/><g><path d="M6.882 4.986H3.696a2.614 2.614 0 0 0-2.614 2.615v37.745a2.614 2.614 0 0 0 2.614 2.614h37.745a2.614 2.614 0 0 0 2.615-2.614V7.6a2.614 2.614 0 0 0-2.615-2.615h-3.186M20.608 4.922h-9.804M34.333 4.922H24.53M1.082 13.392h42.974"/></g><g stroke-linecap="round" stroke-linejoin="round"><path d="M7.488 19.774h5.471v5.472H7.49zM15.651 19.774h5.472v5.472h-5.472zM23.813 19.774h5.472v5.472h-5.472zM7.488 28.14h5.471v5.473H7.49zM15.651 28.14h5.472v5.473h-5.472zM23.813 28.14h5.472v5.473h-5.472zM32.177 19.774h5.472v5.472h-5.472zM32.177 28.14h5.472v5.473h-5.472zM7.488 36.508h5.471v5.472H7.49zM15.651 36.508h5.472v5.472h-5.472zM23.813 36.508h5.472v5.472h-5.472z"/></g></g></svg>